<?xml version="1.0" encoding="utf-8"?>
<!-- Generator: Adobe Illustrator 19.0.0, SVG Export Plug-In . SVG Version: 6.00 Build 0)  -->
<svg version="1.1" id="Layer_1" xmlns="http://www.w3.org/2000/svg" xmlns:xlink="http://www.w3.org/1999/xlink" x="0px" y="0px"
	 width="470.8px" height="470.8px" viewBox="0 0 470.8 470.8" style="enable-background:new 0 0 470.8 470.8;" xml:space="preserve"
	>
<path id="XMLID_349_" d="M433.2,0H268v75.1c0,6.9-5.6,12.5-12.5,12.5h-40.4c-6.9,0-12.5-5.6-12.5-12.5V0H37.5C16.8,0,0,16.8,0,37.5
	v395.8c0,20.7,16.8,37.5,37.5,37.5h395.8c20.7,0,37.5-16.8,37.5-37.5V37.5C470.7,16.8,453.9,0,433.2,0z M271.1,334.6
	c-2.7,3-6.5,4.5-10.2,4.5c-3.3,0-6.6-1.1-9.2-3.6c-2.5-2.3-9.8-8.9-9.8-8.9v61.4c0,7.6-6.1,13.7-13.7,13.7s-13.7-6.1-13.7-13.7
	v-61.4c0,0-7.4,6.7-9.8,8.9c-2.7,2.4-5.9,3.6-9.2,3.6c-3.8,0-7.5-1.5-10.2-4.5c-5.1-5.6-4.6-14.3,1-19.5c0,0,21.1-18.8,31.3-28.4
	c3-2.7,6.3-5,10.7-5s7.7,2.4,10.7,5c10.2,9.5,31.3,28.4,31.3,28.4C275.7,320.3,276.2,329,271.1,334.6z M397.9,334.6
	c-2.7,3-6.5,4.5-10.2,4.5c-3.3,0-6.6-1.1-9.2-3.6c-2.5-2.3-9.8-8.9-9.8-8.9v61.4c0,7.6-6.1,13.7-13.7,13.7s-13.7-6.1-13.7-13.7
	v-61.4c0,0-7.4,6.7-9.8,8.9c-2.7,2.4-5.9,3.6-9.2,3.6c-3.8,0-7.5-1.5-10.2-4.5c-5.1-5.6-4.6-14.3,1-19.5c0,0,21.1-18.8,31.3-28.4
	c3-2.7,6.3-5,10.7-5c4.3,0,7.7,2.4,10.7,5c10.2,9.5,31.3,28.4,31.3,28.4C402.5,320.3,403,329,397.9,334.6z"/>
</svg>
