<?xml version="1.0" encoding="utf-8"?>
<!-- Generator: Adobe Illustrator 19.0.0, SVG Export Plug-In . SVG Version: 6.00 Build 0)  -->
<svg version="1.1" id="Layer_1" xmlns="http://www.w3.org/2000/svg" xmlns:xlink="http://www.w3.org/1999/xlink" x="0px" y="0px"
	 width="490px" height="481.7px" viewBox="0 0 490 481.7" style="enable-background:new 0 0 490 481.7;" xml:space="preserve">
<g id="XMLID_198_">
	<path id="XMLID_199_" d="M288.4,355.3h105.5c7.1,0,12.9-5.8,12.9-12.9V236.9c0-7.1-5.8-12.9-12.9-12.9h-42.7v21.4
		c0,1.8-1.4,3.2-3.2,3.2h-13.6c-1.8,0-3.2-1.4-3.2-3.2V224h-42.7c-7.1,0-12.9,5.8-12.9,12.9v105.5
		C275.5,349.5,281.3,355.3,288.4,355.3z"/>
	<path id="XMLID_200_" d="M96.1,355.3h105.5c7.1,0,12.9-5.8,12.9-12.9V236.9c0-7.1-5.8-12.9-12.9-12.9h-42.7v21.4
		c0,1.8-1.4,3.2-3.2,3.2H142c-1.8,0-3.2-1.4-3.2-3.2V224H96.1c-7.1,0-12.9,5.8-12.9,12.9v105.5C83.1,349.5,88.9,355.3,96.1,355.3z"
		/>
	<path id="XMLID_201_" d="M288.4,131.3h105.5c7.1,0,12.9-5.8,12.9-12.9V12.9c0-7.1-5.8-12.9-12.9-12.9h-42.7v21.4
		c0,1.8-1.4,3.2-3.2,3.2h-13.6c-1.8,0-3.2-1.4-3.2-3.2V0h-42.7c-7.1,0-12.9,5.8-12.9,12.9v105.5
		C275.5,125.6,281.3,131.3,288.4,131.3z"/>
	<path id="XMLID_202_" d="M96.1,131.3h105.5c7.1,0,12.9-5.8,12.9-12.9V12.9c0-7.1-5.8-12.9-12.9-12.9h-42.7v21.4
		c0,1.8-1.4,3.2-3.2,3.2H142c-1.8,0-3.2-1.4-3.2-3.2V0H96.1c-7.1,0-12.9,5.8-12.9,12.9v105.5C83.1,125.6,88.9,131.3,96.1,131.3z"/>
	<path id="XMLID_205_" d="M485.7,0H448c-2.4,0-4.3,1.9-4.3,4.3v157.2H46.3V4.3C46.3,1.9,44.4,0,42,0H4.3C1.9,0,0,1.9,0,4.3v473.1
		c0,2.4,1.9,4.3,4.3,4.3H42c2.4,0,4.3-1.9,4.3-4.3v-59.7h397.4v59.7c0,2.4,1.9,4.3,4.3,4.3h37.7c2.4,0,4.3-1.9,4.3-4.3V4.3
		C490,1.9,488.1,0,485.7,0z M23.1,410.5c-5,0-9-4-9-9c0-5,4-9,9-9c5,0,9,4,9,9C32.1,406.5,28.1,410.5,23.1,410.5z M23.1,186.6
		c-5,0-9-4-9-9c0-5,4-9,9-9c5,0,9,4,9,9C32.1,182.6,28.1,186.6,23.1,186.6z M443.7,385.4H46.3V193.8h397.4V385.4z M466.9,410.5
		c-5,0-9-4-9-9c0-5,4-9,9-9c5,0,9,4,9,9C475.8,406.5,471.8,410.5,466.9,410.5z M466.9,186.6c-5,0-9-4-9-9c0-5,4-9,9-9c5,0,9,4,9,9
		C475.8,182.6,471.8,186.6,466.9,186.6z"/>
</g>
</svg>
