<?xml version="1.0" encoding="utf-8"?>
<!-- Generator: Adobe Illustrator 19.0.0, SVG Export Plug-In . SVG Version: 6.00 Build 0)  -->
<svg version="1.1" id="Layer_1" xmlns="http://www.w3.org/2000/svg" xmlns:xlink="http://www.w3.org/1999/xlink" x="0px" y="0px"
	 width="749.6px" height="479.8px" viewBox="0 0 749.6 479.8" style="enable-background:new 0 0 749.6 479.8;" xml:space="preserve"
	>
<g id="XMLID_5_">
	<path id="XMLID_14_" d="M744.1,387.3c3.1,0,5.5-2.5,5.5-5.5v-29.1c0-3.1-2.5-5.5-5.5-5.5H5.5c-3.1,0-5.5,2.5-5.5,5.5v29.1
		c0,3.1,2.5,5.5,5.5,5.5h48.8v52.3H5.5c-3.1,0-5.5,2.5-5.5,5.5v29.1c0,3.1,2.5,5.5,5.5,5.5h738.5c3.1,0,5.5-2.5,5.5-5.5v-29.1
		c0-3.1-2.5-5.5-5.5-5.5h-48.8v-52.3H744.1z M328.8,439.7H143.7v-52.3h185.1V439.7z M605.9,439.7H418.1v-52.3h187.8V439.7z"/>
	<path id="XMLID_37_" d="M436.6,288.2h242.4c12.7,0,22.9-10.3,22.9-22.9V22.9c0-12.7-10.3-22.9-22.9-22.9H577.7v46
		c0,4.2-3.4,7.6-7.6,7.6h-24.7c-4.2,0-7.6-3.4-7.6-7.6V0H436.6c-12.7,0-22.9,10.3-22.9,22.9v242.4
		C413.6,278,423.9,288.2,436.6,288.2z M605.3,193c0,0,12.9-11.5,19.2-17.4c1.8-1.7,3.9-3.1,6.5-3.1c2.6,0,4.7,1.4,6.5,3.1
		c6.3,5.8,19.2,17.4,19.2,17.4c3.4,3.1,3.7,8.4,0.6,11.9c-1.7,1.8-3.9,2.8-6.2,2.8c-2,0-4-0.7-5.6-2.2c-1.5-1.4-6-5.4-6-5.4v37.6
		c0,4.6-3.8,8.4-8.4,8.4c-4.6,0-8.4-3.8-8.4-8.4V200c0,0-4.5,4.1-6,5.4c-1.6,1.5-3.6,2.2-5.6,2.2c-2.3,0-4.6-0.9-6.2-2.8
		C601.6,201.4,601.8,196.1,605.3,193z M527.6,193c0,0,12.9-11.5,19.2-17.4c1.8-1.7,3.9-3.1,6.5-3.1c2.6,0,4.7,1.4,6.5,3.1
		c6.3,5.8,19.2,17.4,19.2,17.4c3.4,3.1,3.7,8.4,0.6,11.9c-1.7,1.8-3.9,2.8-6.2,2.8c-2,0-4-0.7-5.6-2.2c-1.5-1.4-6-5.4-6-5.4v37.6
		c0,4.6-3.8,8.4-8.4,8.4c-4.6,0-8.4-3.8-8.4-8.4V200c0,0-4.5,4.1-6,5.4c-1.6,1.5-3.6,2.2-5.6,2.2c-2.3,0-4.6-0.9-6.2-2.8
		C523.9,201.4,524.2,196.1,527.6,193z"/>
	<path id="XMLID_89_" d="M70.7,288.2H313c12.7,0,22.9-10.3,22.9-22.9V22.9C336,10.3,325.7,0,313,0H211.9v46c0,4.2-3.4,7.6-7.6,7.6
		h-24.7c-4.2,0-7.6-3.4-7.6-7.6V0H70.7C58,0,47.7,10.3,47.7,22.9v242.4C47.7,278,58,288.2,70.7,288.2z M239.4,193
		c0,0,12.9-11.5,19.2-17.4c1.8-1.7,3.9-3.1,6.5-3.1c2.6,0,4.7,1.4,6.5,3.1c6.3,5.8,19.2,17.4,19.2,17.4c3.4,3.1,3.7,8.4,0.6,11.9
		c-1.7,1.8-3.9,2.8-6.2,2.8c-2,0-4-0.7-5.6-2.2c-1.5-1.4-6-5.4-6-5.4v37.6c0,4.6-3.8,8.4-8.4,8.4s-8.4-3.8-8.4-8.4V200
		c0,0-4.5,4.1-6,5.4c-1.6,1.5-3.6,2.2-5.6,2.2c-2.3,0-4.6-0.9-6.2-2.8C235.7,201.4,235.9,196.1,239.4,193z M161.8,193
		c0,0,12.9-11.5,19.2-17.4c1.8-1.7,3.9-3.1,6.5-3.1c2.6,0,4.7,1.4,6.5,3.1c6.3,5.8,19.2,17.4,19.2,17.4c3.4,3.1,3.7,8.4,0.6,11.9
		c-1.7,1.8-3.9,2.8-6.2,2.8c-2,0-4-0.7-5.6-2.2c-1.5-1.4-6-5.4-6-5.4v37.6c0,4.6-3.8,8.4-8.4,8.4c-4.6,0-8.4-3.8-8.4-8.4V200
		c0,0-4.5,4.1-6,5.4c-1.6,1.5-3.6,2.2-5.6,2.2c-2.3,0-4.6-0.9-6.2-2.8C158,201.4,158.3,196.1,161.8,193z"/>
</g>
</svg>
